<svg xmlns="http://www.w3.org/2000/svg" xmlns:xlink="http://www.w3.org/1999/xlink" width="500" zoomAndPan="magnify" viewBox="0 0 375 374.999991" height="500" preserveAspectRatio="xMidYMid meet" version="1.0"><defs><clipPath id="af643a9741"><path d="M 185 122.25 L 190 122.25 L 190 137 L 185 137 Z M 185 122.25 " clip-rule="nonzero"/></clipPath><clipPath id="5834f8ab65"><path d="M 152 225 L 223 225 L 223 252.75 L 152 252.75 Z M 152 225 " clip-rule="nonzero"/></clipPath><clipPath id="114d80fbcd"><path d="M 208 209 L 262.5 209 L 262.5 232 L 208 232 Z M 208 209 " clip-rule="nonzero"/></clipPath><clipPath id="891c266430"><path d="M 112.5 209 L 166 209 L 166 232 L 112.5 232 Z M 112.5 209 " clip-rule="nonzero"/></clipPath></defs><g clip-path="url(#af643a9741)"><path fill="#219d80" d="M 187.417969 136.316406 C 186.5 136.316406 185.761719 135.570312 185.761719 134.652344 L 185.761719 123.960938 C 185.761719 123.046875 186.5 122.296875 187.417969 122.296875 C 188.335938 122.296875 189.078125 123.046875 189.078125 123.960938 L 189.078125 134.652344 C 189.078125 135.570312 188.335938 136.316406 187.417969 136.316406 " fill-opacity="1" fill-rule="nonzero"/></g><path fill="#219d80" d="M 172.769531 138.898438 C 172.089844 138.898438 171.453125 138.476562 171.207031 137.808594 L 167.273438 126.992188 C 166.964844 126.132812 167.40625 125.183594 168.265625 124.867188 C 169.128906 124.550781 170.082031 125 170.390625 125.859375 L 174.328125 136.675781 C 174.640625 137.53125 174.199219 138.484375 173.339844 138.800781 C 173.152344 138.863281 172.960938 138.898438 172.769531 138.898438 " fill-opacity="1" fill-rule="nonzero"/><path fill="#219d80" d="M 159.058594 145.503906 C 158.585938 145.503906 158.109375 145.296875 157.785156 144.90625 L 150.585938 136.328125 C 149.996094 135.628906 150.089844 134.578125 150.789062 133.988281 C 151.488281 133.398438 152.539062 133.492188 153.128906 134.191406 L 160.328125 142.777344 C 160.914062 143.476562 160.828125 144.523438 160.121094 145.113281 C 159.808594 145.375 159.429688 145.503906 159.058594 145.503906 " fill-opacity="1" fill-rule="nonzero"/><path fill="#219d80" d="M 150.296875 154.628906 C 150.011719 154.628906 149.726562 154.558594 149.46875 154.40625 L 139.28125 148.527344 C 138.484375 148.066406 138.210938 147.054688 138.671875 146.261719 C 139.128906 145.46875 140.144531 145.195312 140.9375 145.65625 L 151.128906 151.535156 C 151.921875 151.992188 152.195312 153.007812 151.734375 153.800781 C 151.425781 154.332031 150.871094 154.628906 150.296875 154.628906 " fill-opacity="1" fill-rule="nonzero"/><path fill="#219d80" d="M 226.171875 156.894531 C 225.59375 156.894531 225.039062 156.597656 224.730469 156.066406 C 224.277344 155.273438 224.542969 154.257812 225.339844 153.792969 L 234.0625 148.761719 C 234.855469 148.304688 235.871094 148.574219 236.328125 149.367188 C 236.789062 150.164062 236.515625 151.179688 235.71875 151.640625 L 227.003906 156.671875 C 226.738281 156.824219 226.453125 156.894531 226.171875 156.894531 " fill-opacity="1" fill-rule="nonzero"/><path fill="#219d80" d="M 216.660156 146.449219 C 216.289062 146.449219 215.90625 146.320312 215.597656 146.058594 C 214.898438 145.46875 214.804688 144.421875 215.394531 143.722656 L 222.371094 135.40625 C 222.960938 134.707031 224.007812 134.613281 224.707031 135.203125 C 225.410156 135.785156 225.5 136.835938 224.910156 137.539062 L 217.933594 145.851562 C 217.605469 146.246094 217.132812 146.449219 216.660156 146.449219 " fill-opacity="1" fill-rule="nonzero"/><path fill="#219d80" d="M 202.0625 139.734375 C 201.875 139.734375 201.683594 139.699219 201.496094 139.632812 C 200.632812 139.320312 200.1875 138.367188 200.503906 137.503906 L 204.417969 126.757812 C 204.730469 125.894531 205.675781 125.449219 206.542969 125.765625 C 207.40625 126.074219 207.851562 127.035156 207.535156 127.890625 L 203.621094 138.640625 C 203.375 139.3125 202.742188 139.734375 202.0625 139.734375 " fill-opacity="1" fill-rule="nonzero"/><path fill="#219d80" d="M 219.003906 161.257812 C 218.589844 161.257812 218.171875 161.101562 217.851562 160.789062 C 209.652344 152.914062 198.875 148.574219 187.5 148.574219 C 176.125 148.574219 165.347656 152.914062 157.148438 160.789062 C 156.488281 161.425781 155.4375 161.410156 154.800781 160.742188 C 154.167969 160.082031 154.1875 159.03125 154.847656 158.394531 C 163.664062 149.921875 175.261719 145.25 187.5 145.25 C 199.738281 145.25 211.335938 149.921875 220.152344 158.394531 C 220.8125 159.03125 220.832031 160.082031 220.199219 160.742188 C 219.871094 161.082031 219.433594 161.257812 219.003906 161.257812 " fill-opacity="1" fill-rule="nonzero"/><g clip-path="url(#5834f8ab65)"><path fill="#219d80" d="M 187.382812 252.851562 C 162.351562 252.851562 152.839844 245.59375 152.839844 245.59375 C 154.660156 240.082031 157.761719 232.292969 161.648438 228.792969 C 170.605469 220.734375 175.015625 229.523438 187.382812 229.523438 C 199.757812 229.523438 204.164062 220.734375 213.121094 228.792969 C 217.179688 232.445312 220.378906 240.757812 222.160156 246.292969 C 222.160156 246.292969 215.734375 252.851562 187.382812 252.851562 " fill-opacity="1" fill-rule="nonzero"/></g><path fill="#219d80" d="M 208.554688 193.546875 C 208.554688 208.257812 199.078125 220.175781 187.382812 220.175781 C 175.691406 220.175781 166.214844 208.257812 166.214844 193.546875 C 166.214844 178.84375 175.691406 166.921875 187.382812 166.921875 C 199.078125 166.921875 208.554688 178.84375 208.554688 193.546875 " fill-opacity="1" fill-rule="nonzero"/><path fill="#219d80" d="M 155.816406 185.132812 C 155.816406 196.496094 148.488281 205.710938 139.453125 205.710938 C 130.421875 205.710938 123.097656 196.496094 123.097656 185.132812 C 123.097656 173.769531 130.421875 164.554688 139.453125 164.554688 C 148.488281 164.554688 155.816406 173.769531 155.816406 185.132812 " fill-opacity="1" fill-rule="nonzero"/><path fill="#219d80" d="M 251.726562 185.132812 C 251.726562 196.496094 244.402344 205.710938 235.371094 205.710938 C 226.332031 205.710938 219.007812 196.496094 219.007812 185.132812 C 219.007812 173.769531 226.332031 164.554688 235.371094 164.554688 C 244.402344 164.554688 251.726562 173.769531 251.726562 185.132812 " fill-opacity="1" fill-rule="nonzero"/><g clip-path="url(#114d80fbcd)"><path fill="#219d80" d="M 255.257812 212.367188 C 248.332031 206.144531 244.921875 212.933594 235.371094 212.933594 C 225.8125 212.933594 222.402344 206.144531 215.480469 212.367188 C 213.8125 213.867188 210.675781 217.0625 208.890625 219.964844 C 211.679688 220.613281 214.359375 222.097656 217.003906 224.472656 C 218.570312 225.878906 220.070312 227.789062 221.519531 230.179688 C 243.765625 235.601562 262.242188 225.890625 262.242188 225.890625 C 260.863281 221.613281 258.394531 215.1875 255.257812 212.367188 " fill-opacity="1" fill-rule="nonzero"/></g><g clip-path="url(#891c266430)"><path fill="#219d80" d="M 157.765625 224.472656 C 160.40625 222.101562 163.074219 220.617188 165.855469 219.972656 C 163.996094 217.035156 160.996094 213.855469 159.34375 212.367188 C 152.421875 206.144531 149.011719 212.933594 139.453125 212.933594 C 129.894531 212.933594 126.492188 206.144531 119.566406 212.367188 C 116.558594 215.070312 114.164062 221.085938 112.757812 225.347656 C 112.757812 225.347656 130.855469 234.480469 153.382812 229.96875 C 154.789062 227.679688 156.253906 225.839844 157.765625 224.472656 " fill-opacity="1" fill-rule="nonzero"/></g></svg>