<svg xmlns="http://www.w3.org/2000/svg" xmlns:xlink="http://www.w3.org/1999/xlink" width="500" zoomAndPan="magnify" viewBox="0 0 375 374.999991" height="500" preserveAspectRatio="xMidYMid meet" version="1.0"><defs><clipPath id="5d335c97f4"><path d="M 142 74.496094 L 235 74.496094 L 235 224.496094 L 142 224.496094 Z M 142 74.496094 " clip-rule="nonzero"/></clipPath><clipPath id="af8f29bc27"><path d="M 77.972656 239.195312 L 280.980469 239.195312 L 280.980469 318.628906 L 77.972656 318.628906 Z M 77.972656 239.195312 " clip-rule="nonzero"/></clipPath><clipPath id="ec3b35193f"><path d="M 219 232.667969 L 250 232.667969 L 250 243 L 219 243 Z M 219 232.667969 " clip-rule="nonzero"/></clipPath></defs><g clip-path="url(#5d335c97f4)"><path fill="#219d80" d="M 195.855469 224.375 C 210.449219 216.804688 211.101562 192.894531 204.203125 190.269531 C 205.441406 194.960938 199.972656 198.53125 195.855469 203.121094 C 201.417969 187.507812 183.566406 171.890625 188.285156 161.0625 C 160.945312 176.886719 161.171875 214.042969 180.484375 224.234375 C 154.003906 219.175781 128.714844 189.980469 150.890625 152.019531 C 164.441406 128.816406 204.90625 102.566406 186.714844 74.421875 C 211.722656 89.089844 226.558594 123.550781 207.539062 169.328125 C 211.722656 167.964844 217.175781 159.417969 220.042969 147.34375 C 246.339844 171.417969 235.894531 218.417969 195.855469 224.375 " fill-opacity="1" fill-rule="nonzero"/></g><g clip-path="url(#af8f29bc27)"><path fill="#219d80" d="M 280.082031 246.460938 C 276.917969 243.519531 269.09375 240.703125 250.792969 250.871094 C 242.871094 255.804688 238.578125 258.976562 236.410156 260.730469 C 235.019531 261.851562 233.316406 262.519531 231.53125 262.640625 C 221.996094 263.304688 191.886719 266.207031 181.570312 266.003906 C 180.066406 265.972656 179.558594 263.941406 180.566406 263.148438 C 181.324219 262.558594 182.488281 262.265625 184.144531 261.75 C 189.996094 259.921875 222.527344 260.074219 221.816406 247.90625 C 221.132812 236.238281 197.808594 240.542969 190.886719 242.015625 C 188.203125 242.589844 185.210938 243.035156 182.449219 243.371094 C 182.449219 243.371094 172.414062 243.8125 167.476562 242.628906 C 157.183594 239.941406 135.535156 235.574219 121.855469 246.660156 C 110.835938 255.582031 105.949219 261.46875 103.816406 264.675781 C 102.375 266.84375 100.402344 268.597656 98.09375 269.800781 L 78.824219 283.367188 C 77.808594 284.078125 77.683594 285.53125 78.558594 286.410156 L 110.191406 318.042969 C 111.054688 318.90625 112.480469 318.800781 113.207031 317.820312 C 117.558594 311.9375 133.121094 294.707031 165.566406 295.753906 C 204.648438 297.015625 204.902344 296.257812 213.476562 291.71875 C 220.203125 288.160156 236.207031 282.429688 242.785156 280.125 C 244.722656 279.449219 246.523438 278.433594 248.109375 277.132812 L 279.871094 251.042969 C 281.34375 249.910156 281.441406 247.726562 280.082031 246.460938 " fill-opacity="1" fill-rule="nonzero"/></g><g clip-path="url(#ec3b35193f)"><path fill="#219d80" d="M 219.941406 238.757812 C 220.945312 239.320312 221.824219 239.980469 222.566406 240.71875 C 223.023438 241.171875 223.433594 241.667969 223.789062 242.183594 C 226.121094 241.078125 228.726562 239.902344 231.535156 238.691406 L 231.574219 238.671875 C 238.628906 236.035156 244.710938 234.628906 249.6875 234.476562 C 248.0625 233.613281 246.027344 233.105469 243.621094 232.960938 C 238.53125 232.660156 231.90625 234.015625 223.933594 236.992188 C 222.554688 237.589844 221.210938 238.183594 219.941406 238.757812 " fill-opacity="1" fill-rule="nonzero"/></g><path fill="#219d80" d="M 215.78125 259.03125 C 217.648438 258.890625 219.433594 258.75 221.101562 258.621094 L 221.121094 258.617188 C 225.585938 258.273438 229.4375 257.972656 231.898438 257.816406 C 232.316406 257.789062 232.734375 257.707031 233.140625 257.566406 C 233.664062 257.386719 234.140625 257.125 234.5625 256.789062 C 236.789062 254.988281 241.074219 251.839844 248.84375 247.03125 L 248.929688 246.980469 L 249.003906 246.9375 C 251.222656 245.71875 253.386719 244.628906 255.4375 243.714844 C 257.464844 242.847656 259.40625 242.136719 261.21875 241.605469 C 261.46875 241.53125 261.71875 241.460938 261.96875 241.390625 C 261.679688 241.140625 261.367188 240.902344 261.039062 240.6875 C 259.183594 239.472656 256.707031 238.804688 253.675781 238.703125 C 248.832031 238.546875 242.648438 239.835938 235.300781 242.542969 C 231.957031 243.972656 228.9375 245.335938 226.324219 246.601562 C 226.335938 246.71875 226.34375 246.835938 226.347656 246.949219 C 226.695312 252.320312 223.140625 256.378906 215.78125 259.03125 " fill-opacity="1" fill-rule="nonzero"/></svg>