<svg xmlns="http://www.w3.org/2000/svg" xmlns:xlink="http://www.w3.org/1999/xlink" width="500" zoomAndPan="magnify" viewBox="0 0 375 374.999991" height="500" preserveAspectRatio="xMidYMid meet" version="1.0"><defs><clipPath id="4245fc5d57"><path d="M 59.398438 0 L 314.527344 0 L 314.527344 375 L 59.398438 375 Z M 59.398438 0 " clip-rule="nonzero"/></clipPath></defs><g clip-path="url(#4245fc5d57)"><path fill="#238b50" d="M 315.425781 123.304688 C 315.503906 122.707031 315.503906 122.03125 315.503906 121.207031 C 315.578125 54.386719 258.058594 0.015625 187.488281 0.015625 C 116.84375 0.015625 59.398438 54.386719 59.398438 121.207031 C 59.398438 122.03125 59.476562 122.78125 59.476562 123.457031 C 59.476562 123.679688 59.476562 123.90625 59.550781 124.207031 C 58.050781 160.652344 70.425781 195.300781 95.320312 224.398438 C 109.34375 240.820312 123.59375 251.09375 130.195312 255.445312 L 130.195312 275.691406 C 123.070312 279.367188 118.269531 286.714844 118.269531 295.265625 C 118.269531 306.515625 126.742188 315.738281 137.617188 317.089844 C 136.941406 319.1875 136.566406 321.4375 136.566406 323.839844 L 136.566406 324.664062 C 136.566406 336.285156 145.792969 345.734375 157.265625 346.1875 C 156.515625 348.359375 156.140625 350.761719 156.140625 353.160156 C 156.140625 365.234375 165.964844 375.132812 178.113281 375.132812 L 201.289062 375.132812 C 213.363281 375.132812 223.261719 365.308594 223.261719 353.160156 C 223.261719 350.6875 222.886719 348.359375 222.136719 346.1875 C 233.609375 345.734375 242.832031 336.285156 242.832031 324.664062 L 242.832031 323.839844 C 242.832031 321.511719 242.460938 319.261719 241.785156 317.089844 C 252.65625 315.8125 261.132812 306.515625 261.132812 295.265625 C 261.132812 285.140625 254.234375 276.59375 244.933594 274.042969 L 244.933594 255.445312 C 251.53125 251.09375 265.78125 240.820312 279.804688 224.398438 C 304.703125 195.300781 317.078125 160.652344 315.578125 124.207031 C 315.425781 123.832031 315.425781 123.605469 315.425781 123.304688 Z M 201.210938 359.984375 L 178.039062 359.984375 C 174.214844 359.984375 171.066406 356.835938 171.066406 353.011719 C 171.066406 349.1875 174.214844 346.035156 178.039062 346.035156 L 201.210938 346.035156 C 205.039062 346.035156 208.1875 349.1875 208.1875 353.011719 C 208.1875 356.835938 205.039062 359.984375 201.210938 359.984375 Z M 227.761719 324.511719 C 227.761719 328.113281 224.835938 331.039062 221.234375 331.039062 L 158.015625 331.039062 C 154.417969 331.039062 151.492188 328.113281 151.492188 324.511719 L 151.492188 323.6875 C 151.492188 320.089844 154.417969 317.164062 158.015625 317.164062 L 221.160156 317.164062 C 224.761719 317.164062 227.683594 320.089844 227.683594 323.6875 L 227.683594 324.511719 Z M 239.007812 302.164062 L 140.167969 302.164062 C 136.34375 302.164062 133.195312 299.015625 133.195312 295.191406 C 133.195312 291.367188 136.34375 288.214844 140.167969 288.214844 L 239.085938 288.214844 C 242.910156 288.214844 246.058594 291.367188 246.058594 295.191406 C 246.058594 299.015625 242.910156 302.164062 239.007812 302.164062 Z M 195.136719 190.425781 L 232.785156 152.777344 C 235.710938 149.851562 235.710938 145.128906 232.785156 142.203125 C 229.859375 139.277344 225.136719 139.277344 222.210938 142.203125 L 195.214844 169.203125 L 195.214844 143.179688 L 217.710938 120.679688 C 220.636719 117.757812 220.636719 113.03125 217.710938 110.105469 C 214.785156 107.183594 210.0625 107.183594 207.136719 110.105469 L 195.136719 122.03125 L 195.136719 100.957031 C 195.136719 96.832031 191.761719 93.457031 187.640625 93.457031 C 183.515625 93.457031 180.140625 96.832031 180.140625 100.957031 L 180.140625 122.253906 L 167.992188 110.105469 C 165.066406 107.183594 160.339844 107.183594 157.417969 110.105469 C 154.492188 113.03125 154.492188 117.757812 157.417969 120.679688 L 180.214844 143.480469 L 180.214844 169.203125 L 153.214844 142.203125 C 150.292969 139.277344 145.566406 139.277344 142.644531 142.203125 C 139.71875 145.128906 139.71875 149.851562 142.644531 152.777344 L 180.289062 190.425781 L 180.289062 213.671875 C 168.214844 212.324219 157.117188 207.824219 148.34375 200.472656 C 136.71875 190.726562 130.117188 176.699219 129.21875 159.828125 C 127.417969 126.457031 147.066406 93.082031 187.640625 60.535156 C 209.613281 77.859375 225.585938 95.558594 235.035156 113.03125 C 243.285156 128.253906 246.882812 143.554688 245.984375 159.828125 C 245.082031 176.699219 238.484375 190.726562 226.859375 200.472656 C 218.234375 207.75 207.210938 212.246094 195.214844 213.597656 L 195.214844 190.425781 Z M 300.429688 124.503906 C 301.855469 157.503906 291.128906 187.648438 268.632812 214.199219 C 251.535156 234.296875 233.757812 244.644531 233.609375 244.71875 C 231.285156 246.070312 229.859375 248.542969 229.859375 251.246094 L 229.859375 273.21875 L 195.136719 273.21875 L 195.136719 228.746094 C 210.660156 227.320312 225.058594 221.472656 236.382812 212.023438 C 251.308594 199.574219 259.78125 181.800781 260.90625 160.652344 C 263.082031 120.230469 241.183594 82.960938 194.011719 46.585938 L 192.136719 45.085938 C 189.4375 42.988281 185.6875 42.988281 182.988281 45.085938 C 135.144531 81.984375 111.96875 120.832031 114.070312 160.726562 C 115.195312 181.875 123.667969 199.648438 138.59375 212.097656 C 149.992188 221.621094 164.539062 227.472656 180.140625 228.820312 L 180.140625 273.21875 L 145.191406 273.21875 L 145.191406 251.246094 C 145.191406 248.542969 143.769531 246.070312 141.441406 244.71875 C 141.292969 244.644531 123.820312 234.519531 106.722656 214.574219 C 83.921875 187.949219 73.125 157.652344 74.546875 124.503906 L 74.546875 123.980469 C 74.546875 123.457031 74.472656 122.929688 74.472656 122.40625 C 74.472656 121.957031 74.398438 121.582031 74.398438 121.28125 C 74.398438 62.636719 125.09375 15.015625 187.488281 15.015625 C 249.808594 15.015625 300.578125 62.636719 300.578125 121.207031 C 300.578125 121.429688 300.578125 121.804688 300.503906 122.253906 C 300.429688 122.78125 300.429688 123.378906 300.429688 124.054688 Z M 300.429688 124.503906 " fill-opacity="1" fill-rule="nonzero"/><path fill="#4bd169" d="M 315.425781 123.304688 C 315.503906 122.707031 315.503906 122.03125 315.503906 121.207031 C 315.578125 54.386719 258.058594 0.015625 187.488281 0.015625 C 116.84375 0.015625 59.398438 54.386719 59.398438 121.207031 C 59.398438 122.03125 59.476562 122.78125 59.476562 123.457031 C 59.476562 123.679688 59.476562 123.90625 59.550781 124.207031 C 58.050781 160.652344 70.425781 195.300781 95.320312 224.398438 C 109.34375 240.820312 123.59375 251.09375 130.195312 255.445312 L 130.195312 275.691406 C 123.070312 279.367188 118.269531 286.714844 118.269531 295.265625 C 118.269531 306.515625 126.742188 315.738281 137.617188 317.089844 C 136.941406 319.1875 136.566406 321.4375 136.566406 323.839844 L 136.566406 324.664062 C 136.566406 336.285156 145.792969 345.734375 157.265625 346.1875 C 156.515625 348.359375 156.140625 350.761719 156.140625 353.160156 C 156.140625 365.234375 165.964844 375.132812 178.113281 375.132812 L 201.289062 375.132812 C 213.363281 375.132812 223.261719 365.308594 223.261719 353.160156 C 223.261719 350.6875 222.886719 348.359375 222.136719 346.1875 C 233.609375 345.734375 242.832031 336.285156 242.832031 324.664062 L 242.832031 323.839844 C 242.832031 321.511719 242.460938 319.261719 241.785156 317.089844 C 252.65625 315.8125 261.132812 306.515625 261.132812 295.265625 C 261.132812 285.140625 254.234375 276.59375 244.933594 274.042969 L 244.933594 255.445312 C 251.53125 251.09375 265.78125 240.820312 279.804688 224.398438 C 304.703125 195.300781 317.078125 160.652344 315.578125 124.207031 C 315.425781 123.832031 315.425781 123.605469 315.425781 123.304688 Z M 201.210938 359.984375 L 178.039062 359.984375 C 174.214844 359.984375 171.066406 356.835938 171.066406 353.011719 C 171.066406 349.1875 174.214844 346.035156 178.039062 346.035156 L 201.210938 346.035156 C 205.039062 346.035156 208.1875 349.1875 208.1875 353.011719 C 208.1875 356.835938 205.039062 359.984375 201.210938 359.984375 Z M 227.761719 324.511719 C 227.761719 328.113281 224.835938 331.039062 221.234375 331.039062 L 158.015625 331.039062 C 154.417969 331.039062 151.492188 328.113281 151.492188 324.511719 L 151.492188 323.6875 C 151.492188 320.089844 154.417969 317.164062 158.015625 317.164062 L 221.160156 317.164062 C 224.761719 317.164062 227.683594 320.089844 227.683594 323.6875 L 227.683594 324.511719 Z M 239.007812 302.164062 L 140.167969 302.164062 C 136.34375 302.164062 133.195312 299.015625 133.195312 295.191406 C 133.195312 291.367188 136.34375 288.214844 140.167969 288.214844 L 239.085938 288.214844 C 242.910156 288.214844 246.058594 291.367188 246.058594 295.191406 C 246.058594 299.015625 242.910156 302.164062 239.007812 302.164062 Z M 195.136719 190.425781 L 232.785156 152.777344 C 235.710938 149.851562 235.710938 145.128906 232.785156 142.203125 C 229.859375 139.277344 225.136719 139.277344 222.210938 142.203125 L 195.214844 169.203125 L 195.214844 143.179688 L 217.710938 120.679688 C 220.636719 117.757812 220.636719 113.03125 217.710938 110.105469 C 214.785156 107.183594 210.0625 107.183594 207.136719 110.105469 L 195.136719 122.03125 L 195.136719 100.957031 C 195.136719 96.832031 191.761719 93.457031 187.640625 93.457031 C 183.515625 93.457031 180.140625 96.832031 180.140625 100.957031 L 180.140625 122.253906 L 167.992188 110.105469 C 165.066406 107.183594 160.339844 107.183594 157.417969 110.105469 C 154.492188 113.03125 154.492188 117.757812 157.417969 120.679688 L 180.214844 143.480469 L 180.214844 169.203125 L 153.214844 142.203125 C 150.292969 139.277344 145.566406 139.277344 142.644531 142.203125 C 139.71875 145.128906 139.71875 149.851562 142.644531 152.777344 L 180.289062 190.425781 L 180.289062 213.671875 C 168.214844 212.324219 157.117188 207.824219 148.34375 200.472656 C 136.71875 190.726562 130.117188 176.699219 129.21875 159.828125 C 127.417969 126.457031 147.066406 93.082031 187.640625 60.535156 C 209.613281 77.859375 225.585938 95.558594 235.035156 113.03125 C 243.285156 128.253906 246.882812 143.554688 245.984375 159.828125 C 245.082031 176.699219 238.484375 190.726562 226.859375 200.472656 C 218.234375 207.75 207.210938 212.246094 195.214844 213.597656 L 195.214844 190.425781 Z M 300.429688 124.503906 C 301.855469 157.503906 291.128906 187.648438 268.632812 214.199219 C 251.535156 234.296875 233.757812 244.644531 233.609375 244.71875 C 231.285156 246.070312 229.859375 248.542969 229.859375 251.246094 L 229.859375 273.21875 L 195.136719 273.21875 L 195.136719 228.746094 C 210.660156 227.320312 225.058594 221.472656 236.382812 212.023438 C 251.308594 199.574219 259.78125 181.800781 260.90625 160.652344 C 263.082031 120.230469 241.183594 82.960938 194.011719 46.585938 L 192.136719 45.085938 C 189.4375 42.988281 185.6875 42.988281 182.988281 45.085938 C 135.144531 81.984375 111.96875 120.832031 114.070312 160.726562 C 115.195312 181.875 123.667969 199.648438 138.59375 212.097656 C 149.992188 221.621094 164.539062 227.472656 180.140625 228.820312 L 180.140625 273.21875 L 145.191406 273.21875 L 145.191406 251.246094 C 145.191406 248.542969 143.769531 246.070312 141.441406 244.71875 C 141.292969 244.644531 123.820312 234.519531 106.722656 214.574219 C 83.921875 187.949219 73.125 157.652344 74.546875 124.503906 L 74.546875 123.980469 C 74.546875 123.457031 74.472656 122.929688 74.472656 122.40625 C 74.472656 121.957031 74.398438 121.582031 74.398438 121.28125 C 74.398438 62.636719 125.09375 15.015625 187.488281 15.015625 C 249.808594 15.015625 300.578125 62.636719 300.578125 121.207031 C 300.578125 121.429688 300.578125 121.804688 300.503906 122.253906 C 300.429688 122.78125 300.429688 123.378906 300.429688 124.054688 Z M 300.429688 124.503906 " fill-opacity="1" fill-rule="nonzero"/><path fill="#238b50" d="M 315.425781 123.304688 C 315.503906 122.707031 315.503906 122.03125 315.503906 121.207031 C 315.578125 54.386719 258.058594 0.015625 187.488281 0.015625 C 116.84375 0.015625 59.398438 54.386719 59.398438 121.207031 C 59.398438 122.03125 59.476562 122.78125 59.476562 123.457031 C 59.476562 123.679688 59.476562 123.90625 59.550781 124.207031 C 58.050781 160.652344 70.425781 195.300781 95.320312 224.398438 C 109.34375 240.820312 123.59375 251.09375 130.195312 255.445312 L 130.195312 275.691406 C 123.070312 279.367188 118.269531 286.714844 118.269531 295.265625 C 118.269531 306.515625 126.742188 315.738281 137.617188 317.089844 C 136.941406 319.1875 136.566406 321.4375 136.566406 323.839844 L 136.566406 324.664062 C 136.566406 336.285156 145.792969 345.734375 157.265625 346.1875 C 156.515625 348.359375 156.140625 350.761719 156.140625 353.160156 C 156.140625 365.234375 165.964844 375.132812 178.113281 375.132812 L 201.289062 375.132812 C 213.363281 375.132812 223.261719 365.308594 223.261719 353.160156 C 223.261719 350.6875 222.886719 348.359375 222.136719 346.1875 C 233.609375 345.734375 242.832031 336.285156 242.832031 324.664062 L 242.832031 323.839844 C 242.832031 321.511719 242.460938 319.261719 241.785156 317.089844 C 252.65625 315.8125 261.132812 306.515625 261.132812 295.265625 C 261.132812 285.140625 254.234375 276.59375 244.933594 274.042969 L 244.933594 255.445312 C 251.53125 251.09375 265.78125 240.820312 279.804688 224.398438 C 304.703125 195.300781 317.078125 160.652344 315.578125 124.207031 C 315.425781 123.832031 315.425781 123.605469 315.425781 123.304688 Z M 201.210938 359.984375 L 178.039062 359.984375 C 174.214844 359.984375 171.066406 356.835938 171.066406 353.011719 C 171.066406 349.1875 174.214844 346.035156 178.039062 346.035156 L 201.210938 346.035156 C 205.039062 346.035156 208.1875 349.1875 208.1875 353.011719 C 208.1875 356.835938 205.039062 359.984375 201.210938 359.984375 Z M 227.761719 324.511719 C 227.761719 328.113281 224.835938 331.039062 221.234375 331.039062 L 158.015625 331.039062 C 154.417969 331.039062 151.492188 328.113281 151.492188 324.511719 L 151.492188 323.6875 C 151.492188 320.089844 154.417969 317.164062 158.015625 317.164062 L 221.160156 317.164062 C 224.761719 317.164062 227.683594 320.089844 227.683594 323.6875 L 227.683594 324.511719 Z M 239.007812 302.164062 L 140.167969 302.164062 C 136.34375 302.164062 133.195312 299.015625 133.195312 295.191406 C 133.195312 291.367188 136.34375 288.214844 140.167969 288.214844 L 239.085938 288.214844 C 242.910156 288.214844 246.058594 291.367188 246.058594 295.191406 C 246.058594 299.015625 242.910156 302.164062 239.007812 302.164062 Z M 195.136719 190.425781 L 232.785156 152.777344 C 235.710938 149.851562 235.710938 145.128906 232.785156 142.203125 C 229.859375 139.277344 225.136719 139.277344 222.210938 142.203125 L 195.214844 169.203125 L 195.214844 143.179688 L 217.710938 120.679688 C 220.636719 117.757812 220.636719 113.03125 217.710938 110.105469 C 214.785156 107.183594 210.0625 107.183594 207.136719 110.105469 L 195.136719 122.03125 L 195.136719 100.957031 C 195.136719 96.832031 191.761719 93.457031 187.640625 93.457031 C 183.515625 93.457031 180.140625 96.832031 180.140625 100.957031 L 180.140625 122.253906 L 167.992188 110.105469 C 165.066406 107.183594 160.339844 107.183594 157.417969 110.105469 C 154.492188 113.03125 154.492188 117.757812 157.417969 120.679688 L 180.214844 143.480469 L 180.214844 169.203125 L 153.214844 142.203125 C 150.292969 139.277344 145.566406 139.277344 142.644531 142.203125 C 139.71875 145.128906 139.71875 149.851562 142.644531 152.777344 L 180.289062 190.425781 L 180.289062 213.671875 C 168.214844 212.324219 157.117188 207.824219 148.34375 200.472656 C 136.71875 190.726562 130.117188 176.699219 129.21875 159.828125 C 127.417969 126.457031 147.066406 93.082031 187.640625 60.535156 C 209.613281 77.859375 225.585938 95.558594 235.035156 113.03125 C 243.285156 128.253906 246.882812 143.554688 245.984375 159.828125 C 245.082031 176.699219 238.484375 190.726562 226.859375 200.472656 C 218.234375 207.75 207.210938 212.246094 195.214844 213.597656 L 195.214844 190.425781 Z M 300.429688 124.503906 C 301.855469 157.503906 291.128906 187.648438 268.632812 214.199219 C 251.535156 234.296875 233.757812 244.644531 233.609375 244.71875 C 231.285156 246.070312 229.859375 248.542969 229.859375 251.246094 L 229.859375 273.21875 L 195.136719 273.21875 L 195.136719 228.746094 C 210.660156 227.320312 225.058594 221.472656 236.382812 212.023438 C 251.308594 199.574219 259.78125 181.800781 260.90625 160.652344 C 263.082031 120.230469 241.183594 82.960938 194.011719 46.585938 L 192.136719 45.085938 C 189.4375 42.988281 185.6875 42.988281 182.988281 45.085938 C 135.144531 81.984375 111.96875 120.832031 114.070312 160.726562 C 115.195312 181.875 123.667969 199.648438 138.59375 212.097656 C 149.992188 221.621094 164.539062 227.472656 180.140625 228.820312 L 180.140625 273.21875 L 145.191406 273.21875 L 145.191406 251.246094 C 145.191406 248.542969 143.769531 246.070312 141.441406 244.71875 C 141.292969 244.644531 123.820312 234.519531 106.722656 214.574219 C 83.921875 187.949219 73.125 157.652344 74.546875 124.503906 L 74.546875 123.980469 C 74.546875 123.457031 74.472656 122.929688 74.472656 122.40625 C 74.472656 121.957031 74.398438 121.582031 74.398438 121.28125 C 74.398438 62.636719 125.09375 15.015625 187.488281 15.015625 C 249.808594 15.015625 300.578125 62.636719 300.578125 121.207031 C 300.578125 121.429688 300.578125 121.804688 300.503906 122.253906 C 300.429688 122.78125 300.429688 123.378906 300.429688 124.054688 Z M 300.429688 124.503906 " fill-opacity="1" fill-rule="nonzero"/><path fill="#4bd169" d="M 315.425781 123.304688 C 315.503906 122.707031 315.503906 122.03125 315.503906 121.207031 C 315.578125 54.386719 258.058594 0.015625 187.488281 0.015625 C 116.84375 0.015625 59.398438 54.386719 59.398438 121.207031 C 59.398438 122.03125 59.476562 122.78125 59.476562 123.457031 C 59.476562 123.679688 59.476562 123.90625 59.550781 124.207031 C 58.050781 160.652344 70.425781 195.300781 95.320312 224.398438 C 109.34375 240.820312 123.59375 251.09375 130.195312 255.445312 L 130.195312 275.691406 C 123.070312 279.367188 118.269531 286.714844 118.269531 295.265625 C 118.269531 306.515625 126.742188 315.738281 137.617188 317.089844 C 136.941406 319.1875 136.566406 321.4375 136.566406 323.839844 L 136.566406 324.664062 C 136.566406 336.285156 145.792969 345.734375 157.265625 346.1875 C 156.515625 348.359375 156.140625 350.761719 156.140625 353.160156 C 156.140625 365.234375 165.964844 375.132812 178.113281 375.132812 L 201.289062 375.132812 C 213.363281 375.132812 223.261719 365.308594 223.261719 353.160156 C 223.261719 350.6875 222.886719 348.359375 222.136719 346.1875 C 233.609375 345.734375 242.832031 336.285156 242.832031 324.664062 L 242.832031 323.839844 C 242.832031 321.511719 242.460938 319.261719 241.785156 317.089844 C 252.65625 315.8125 261.132812 306.515625 261.132812 295.265625 C 261.132812 285.140625 254.234375 276.59375 244.933594 274.042969 L 244.933594 255.445312 C 251.53125 251.09375 265.78125 240.820312 279.804688 224.398438 C 304.703125 195.300781 317.078125 160.652344 315.578125 124.207031 C 315.425781 123.832031 315.425781 123.605469 315.425781 123.304688 Z M 201.210938 359.984375 L 178.039062 359.984375 C 174.214844 359.984375 171.066406 356.835938 171.066406 353.011719 C 171.066406 349.1875 174.214844 346.035156 178.039062 346.035156 L 201.210938 346.035156 C 205.039062 346.035156 208.1875 349.1875 208.1875 353.011719 C 208.1875 356.835938 205.039062 359.984375 201.210938 359.984375 Z M 227.761719 324.511719 C 227.761719 328.113281 224.835938 331.039062 221.234375 331.039062 L 158.015625 331.039062 C 154.417969 331.039062 151.492188 328.113281 151.492188 324.511719 L 151.492188 323.6875 C 151.492188 320.089844 154.417969 317.164062 158.015625 317.164062 L 221.160156 317.164062 C 224.761719 317.164062 227.683594 320.089844 227.683594 323.6875 L 227.683594 324.511719 Z M 239.007812 302.164062 L 140.167969 302.164062 C 136.34375 302.164062 133.195312 299.015625 133.195312 295.191406 C 133.195312 291.367188 136.34375 288.214844 140.167969 288.214844 L 239.085938 288.214844 C 242.910156 288.214844 246.058594 291.367188 246.058594 295.191406 C 246.058594 299.015625 242.910156 302.164062 239.007812 302.164062 Z M 195.136719 190.425781 L 232.785156 152.777344 C 235.710938 149.851562 235.710938 145.128906 232.785156 142.203125 C 229.859375 139.277344 225.136719 139.277344 222.210938 142.203125 L 195.214844 169.203125 L 195.214844 143.179688 L 217.710938 120.679688 C 220.636719 117.757812 220.636719 113.03125 217.710938 110.105469 C 214.785156 107.183594 210.0625 107.183594 207.136719 110.105469 L 195.136719 122.03125 L 195.136719 100.957031 C 195.136719 96.832031 191.761719 93.457031 187.640625 93.457031 C 183.515625 93.457031 180.140625 96.832031 180.140625 100.957031 L 180.140625 122.253906 L 167.992188 110.105469 C 165.066406 107.183594 160.339844 107.183594 157.417969 110.105469 C 154.492188 113.03125 154.492188 117.757812 157.417969 120.679688 L 180.214844 143.480469 L 180.214844 169.203125 L 153.214844 142.203125 C 150.292969 139.277344 145.566406 139.277344 142.644531 142.203125 C 139.71875 145.128906 139.71875 149.851562 142.644531 152.777344 L 180.289062 190.425781 L 180.289062 213.671875 C 168.214844 212.324219 157.117188 207.824219 148.34375 200.472656 C 136.71875 190.726562 130.117188 176.699219 129.21875 159.828125 C 127.417969 126.457031 147.066406 93.082031 187.640625 60.535156 C 209.613281 77.859375 225.585938 95.558594 235.035156 113.03125 C 243.285156 128.253906 246.882812 143.554688 245.984375 159.828125 C 245.082031 176.699219 238.484375 190.726562 226.859375 200.472656 C 218.234375 207.75 207.210938 212.246094 195.214844 213.597656 L 195.214844 190.425781 Z M 300.429688 124.503906 C 301.855469 157.503906 291.128906 187.648438 268.632812 214.199219 C 251.535156 234.296875 233.757812 244.644531 233.609375 244.71875 C 231.285156 246.070312 229.859375 248.542969 229.859375 251.246094 L 229.859375 273.21875 L 195.136719 273.21875 L 195.136719 228.746094 C 210.660156 227.320312 225.058594 221.472656 236.382812 212.023438 C 251.308594 199.574219 259.78125 181.800781 260.90625 160.652344 C 263.082031 120.230469 241.183594 82.960938 194.011719 46.585938 L 192.136719 45.085938 C 189.4375 42.988281 185.6875 42.988281 182.988281 45.085938 C 135.144531 81.984375 111.96875 120.832031 114.070312 160.726562 C 115.195312 181.875 123.667969 199.648438 138.59375 212.097656 C 149.992188 221.621094 164.539062 227.472656 180.140625 228.820312 L 180.140625 273.21875 L 145.191406 273.21875 L 145.191406 251.246094 C 145.191406 248.542969 143.769531 246.070312 141.441406 244.71875 C 141.292969 244.644531 123.820312 234.519531 106.722656 214.574219 C 83.921875 187.949219 73.125 157.652344 74.546875 124.503906 L 74.546875 123.980469 C 74.546875 123.457031 74.472656 122.929688 74.472656 122.40625 C 74.472656 121.957031 74.398438 121.582031 74.398438 121.28125 C 74.398438 62.636719 125.09375 15.015625 187.488281 15.015625 C 249.808594 15.015625 300.578125 62.636719 300.578125 121.207031 C 300.578125 121.429688 300.578125 121.804688 300.503906 122.253906 C 300.429688 122.78125 300.429688 123.378906 300.429688 124.054688 Z M 300.429688 124.503906 " fill-opacity="1" fill-rule="nonzero"/></g></svg>