<svg xmlns="http://www.w3.org/2000/svg" xmlns:xlink="http://www.w3.org/1999/xlink" width="500" zoomAndPan="magnify" viewBox="0 0 375 374.999991" height="500" preserveAspectRatio="xMidYMid meet" version="1.0"><defs><clipPath id="4fdaa3c0df"><path d="M 144.570312 124.664062 L 230.070312 124.664062 L 230.070312 250.664062 L 144.570312 250.664062 Z M 144.570312 124.664062 " clip-rule="nonzero"/></clipPath></defs><g clip-path="url(#4fdaa3c0df)"><path fill="#238b50" d="M 230.371094 165.988281 C 230.398438 165.785156 230.398438 165.558594 230.398438 165.28125 C 230.421875 142.890625 211.144531 124.667969 187.496094 124.667969 C 163.820312 124.667969 144.570312 142.890625 144.570312 165.28125 C 144.570312 165.558594 144.59375 165.8125 144.59375 166.035156 C 144.59375 166.113281 144.59375 166.1875 144.621094 166.289062 C 144.117188 178.503906 148.265625 190.113281 156.609375 199.863281 C 161.308594 205.367188 166.082031 208.8125 168.296875 210.269531 L 168.296875 217.054688 C 165.90625 218.285156 164.300781 220.75 164.300781 223.613281 C 164.300781 227.382812 167.140625 230.476562 170.785156 230.929688 C 170.558594 231.632812 170.429688 232.386719 170.429688 233.191406 L 170.429688 233.464844 C 170.429688 237.363281 173.523438 240.527344 177.367188 240.679688 C 177.117188 241.410156 176.992188 242.210938 176.992188 243.015625 C 176.992188 247.0625 180.285156 250.378906 184.355469 250.378906 L 192.121094 250.378906 C 196.167969 250.378906 199.484375 247.089844 199.484375 243.015625 C 199.484375 242.1875 199.359375 241.410156 199.105469 240.679688 C 202.953125 240.527344 206.042969 237.363281 206.042969 233.464844 L 206.042969 233.191406 C 206.042969 232.410156 205.917969 231.65625 205.691406 230.929688 C 209.335938 230.5 212.175781 227.382812 212.175781 223.613281 C 212.175781 220.222656 209.863281 217.355469 206.746094 216.503906 L 206.746094 210.269531 C 208.960938 208.8125 213.734375 205.367188 218.433594 199.863281 C 226.777344 190.113281 230.925781 178.503906 230.421875 166.289062 C 230.371094 166.164062 230.371094 166.085938 230.371094 165.988281 Z M 192.09375 245.304688 L 184.328125 245.304688 C 183.046875 245.304688 181.992188 244.25 181.992188 242.964844 C 181.992188 241.683594 183.046875 240.628906 184.328125 240.628906 L 192.09375 240.628906 C 193.378906 240.628906 194.433594 241.683594 194.433594 242.964844 C 194.433594 244.25 193.378906 245.304688 192.09375 245.304688 Z M 200.992188 233.417969 C 200.992188 234.621094 200.011719 235.601562 198.804688 235.601562 L 177.621094 235.601562 C 176.414062 235.601562 175.433594 234.621094 175.433594 233.417969 L 175.433594 233.140625 C 175.433594 231.933594 176.414062 230.953125 177.621094 230.953125 L 198.78125 230.953125 C 199.988281 230.953125 200.96875 231.933594 200.96875 233.140625 L 200.96875 233.417969 Z M 204.761719 225.925781 L 171.636719 225.925781 C 170.355469 225.925781 169.300781 224.871094 169.300781 223.589844 C 169.300781 222.308594 170.355469 221.253906 171.636719 221.253906 L 204.789062 221.253906 C 206.070312 221.253906 207.125 222.308594 207.125 223.589844 C 207.125 224.871094 206.070312 225.925781 204.761719 225.925781 Z M 190.058594 188.480469 L 202.675781 175.863281 C 203.65625 174.882812 203.65625 173.300781 202.675781 172.320312 C 201.695312 171.339844 200.113281 171.339844 199.132812 172.320312 L 190.085938 181.367188 L 190.085938 172.648438 L 197.625 165.105469 C 198.605469 164.128906 198.605469 162.542969 197.625 161.5625 C 196.644531 160.582031 195.0625 160.582031 194.082031 161.5625 L 190.058594 165.558594 L 190.058594 158.496094 C 190.058594 157.113281 188.929688 155.984375 187.546875 155.984375 C 186.164062 155.984375 185.035156 157.113281 185.035156 158.496094 L 185.035156 165.636719 L 180.960938 161.5625 C 179.980469 160.582031 178.398438 160.582031 177.417969 161.5625 C 176.4375 162.542969 176.4375 164.128906 177.417969 165.105469 L 185.058594 172.746094 L 185.058594 181.367188 L 176.011719 172.320312 C 175.03125 171.339844 173.449219 171.339844 172.46875 172.320312 C 171.488281 173.300781 171.488281 174.882812 172.46875 175.863281 L 185.082031 188.480469 L 185.082031 196.269531 C 181.039062 195.820312 177.316406 194.3125 174.378906 191.847656 C 170.480469 188.582031 168.269531 183.882812 167.96875 178.226562 C 167.367188 167.042969 173.949219 155.859375 187.546875 144.953125 C 194.910156 150.757812 200.261719 156.6875 203.429688 162.542969 C 206.195312 167.644531 207.402344 172.773438 207.097656 178.226562 C 206.796875 183.882812 204.585938 188.582031 200.691406 191.847656 C 197.800781 194.285156 194.105469 195.792969 190.085938 196.246094 L 190.085938 188.480469 Z M 225.34375 166.390625 C 225.824219 177.445312 222.230469 187.550781 214.6875 196.445312 C 208.960938 203.183594 203.003906 206.652344 202.953125 206.675781 C 202.171875 207.128906 201.695312 207.957031 201.695312 208.863281 L 201.695312 216.226562 L 190.058594 216.226562 L 190.058594 201.324219 C 195.261719 200.84375 200.085938 198.886719 203.882812 195.71875 C 208.882812 191.546875 211.722656 185.589844 212.101562 178.503906 C 212.828125 164.957031 205.492188 152.464844 189.683594 140.277344 L 189.054688 139.773438 C 188.148438 139.070312 186.894531 139.070312 185.988281 139.773438 C 169.953125 152.140625 162.1875 165.15625 162.890625 178.527344 C 163.269531 185.613281 166.109375 191.570312 171.109375 195.742188 C 174.929688 198.933594 179.804688 200.894531 185.035156 201.347656 L 185.035156 216.226562 L 173.320312 216.226562 L 173.320312 208.863281 C 173.320312 207.957031 172.84375 207.128906 172.066406 206.675781 C 172.015625 206.652344 166.160156 203.257812 160.429688 196.574219 C 152.789062 187.652344 149.167969 177.496094 149.648438 166.390625 L 149.648438 166.214844 C 149.648438 166.035156 149.621094 165.859375 149.621094 165.683594 C 149.621094 165.535156 149.597656 165.410156 149.597656 165.308594 C 149.597656 145.65625 166.585938 129.695312 187.496094 129.695312 C 208.382812 129.695312 225.394531 145.65625 225.394531 165.28125 C 225.394531 165.359375 225.394531 165.484375 225.371094 165.636719 C 225.34375 165.8125 225.34375 166.011719 225.34375 166.238281 Z M 225.34375 166.390625 " fill-opacity="1" fill-rule="nonzero"/><path fill="#238b50" d="M 230.371094 165.988281 C 230.398438 165.785156 230.398438 165.558594 230.398438 165.28125 C 230.421875 142.890625 211.144531 124.667969 187.496094 124.667969 C 163.820312 124.667969 144.570312 142.890625 144.570312 165.28125 C 144.570312 165.558594 144.59375 165.8125 144.59375 166.035156 C 144.59375 166.113281 144.59375 166.1875 144.621094 166.289062 C 144.117188 178.503906 148.265625 190.113281 156.609375 199.863281 C 161.308594 205.367188 166.082031 208.8125 168.296875 210.269531 L 168.296875 217.054688 C 165.90625 218.285156 164.300781 220.75 164.300781 223.613281 C 164.300781 227.382812 167.140625 230.476562 170.785156 230.929688 C 170.558594 231.632812 170.429688 232.386719 170.429688 233.191406 L 170.429688 233.464844 C 170.429688 237.363281 173.523438 240.527344 177.367188 240.679688 C 177.117188 241.410156 176.992188 242.210938 176.992188 243.015625 C 176.992188 247.0625 180.285156 250.378906 184.355469 250.378906 L 192.121094 250.378906 C 196.167969 250.378906 199.484375 247.089844 199.484375 243.015625 C 199.484375 242.1875 199.359375 241.410156 199.105469 240.679688 C 202.953125 240.527344 206.042969 237.363281 206.042969 233.464844 L 206.042969 233.191406 C 206.042969 232.410156 205.917969 231.65625 205.691406 230.929688 C 209.335938 230.5 212.175781 227.382812 212.175781 223.613281 C 212.175781 220.222656 209.863281 217.355469 206.746094 216.503906 L 206.746094 210.269531 C 208.960938 208.8125 213.734375 205.367188 218.433594 199.863281 C 226.777344 190.113281 230.925781 178.503906 230.421875 166.289062 C 230.371094 166.164062 230.371094 166.085938 230.371094 165.988281 Z M 192.09375 245.304688 L 184.328125 245.304688 C 183.046875 245.304688 181.992188 244.25 181.992188 242.964844 C 181.992188 241.683594 183.046875 240.628906 184.328125 240.628906 L 192.09375 240.628906 C 193.378906 240.628906 194.433594 241.683594 194.433594 242.964844 C 194.433594 244.25 193.378906 245.304688 192.09375 245.304688 Z M 200.992188 233.417969 C 200.992188 234.621094 200.011719 235.601562 198.804688 235.601562 L 177.621094 235.601562 C 176.414062 235.601562 175.433594 234.621094 175.433594 233.417969 L 175.433594 233.140625 C 175.433594 231.933594 176.414062 230.953125 177.621094 230.953125 L 198.78125 230.953125 C 199.988281 230.953125 200.96875 231.933594 200.96875 233.140625 L 200.96875 233.417969 Z M 204.761719 225.925781 L 171.636719 225.925781 C 170.355469 225.925781 169.300781 224.871094 169.300781 223.589844 C 169.300781 222.308594 170.355469 221.253906 171.636719 221.253906 L 204.789062 221.253906 C 206.070312 221.253906 207.125 222.308594 207.125 223.589844 C 207.125 224.871094 206.070312 225.925781 204.761719 225.925781 Z M 190.058594 188.480469 L 202.675781 175.863281 C 203.65625 174.882812 203.65625 173.300781 202.675781 172.320312 C 201.695312 171.339844 200.113281 171.339844 199.132812 172.320312 L 190.085938 181.367188 L 190.085938 172.648438 L 197.625 165.105469 C 198.605469 164.128906 198.605469 162.542969 197.625 161.5625 C 196.644531 160.582031 195.0625 160.582031 194.082031 161.5625 L 190.058594 165.558594 L 190.058594 158.496094 C 190.058594 157.113281 188.929688 155.984375 187.546875 155.984375 C 186.164062 155.984375 185.035156 157.113281 185.035156 158.496094 L 185.035156 165.636719 L 180.960938 161.5625 C 179.980469 160.582031 178.398438 160.582031 177.417969 161.5625 C 176.4375 162.542969 176.4375 164.128906 177.417969 165.105469 L 185.058594 172.746094 L 185.058594 181.367188 L 176.011719 172.320312 C 175.03125 171.339844 173.449219 171.339844 172.46875 172.320312 C 171.488281 173.300781 171.488281 174.882812 172.46875 175.863281 L 185.082031 188.480469 L 185.082031 196.269531 C 181.039062 195.820312 177.316406 194.3125 174.378906 191.847656 C 170.480469 188.582031 168.269531 183.882812 167.96875 178.226562 C 167.367188 167.042969 173.949219 155.859375 187.546875 144.953125 C 194.910156 150.757812 200.261719 156.6875 203.429688 162.542969 C 206.195312 167.644531 207.402344 172.773438 207.097656 178.226562 C 206.796875 183.882812 204.585938 188.582031 200.691406 191.847656 C 197.800781 194.285156 194.105469 195.792969 190.085938 196.246094 L 190.085938 188.480469 Z M 225.34375 166.390625 C 225.824219 177.445312 222.230469 187.550781 214.6875 196.445312 C 208.960938 203.183594 203.003906 206.652344 202.953125 206.675781 C 202.171875 207.128906 201.695312 207.957031 201.695312 208.863281 L 201.695312 216.226562 L 190.058594 216.226562 L 190.058594 201.324219 C 195.261719 200.84375 200.085938 198.886719 203.882812 195.71875 C 208.882812 191.546875 211.722656 185.589844 212.101562 178.503906 C 212.828125 164.957031 205.492188 152.464844 189.683594 140.277344 L 189.054688 139.773438 C 188.148438 139.070312 186.894531 139.070312 185.988281 139.773438 C 169.953125 152.140625 162.1875 165.15625 162.890625 178.527344 C 163.269531 185.613281 166.109375 191.570312 171.109375 195.742188 C 174.929688 198.933594 179.804688 200.894531 185.035156 201.347656 L 185.035156 216.226562 L 173.320312 216.226562 L 173.320312 208.863281 C 173.320312 207.957031 172.84375 207.128906 172.066406 206.675781 C 172.015625 206.652344 166.160156 203.257812 160.429688 196.574219 C 152.789062 187.652344 149.167969 177.496094 149.648438 166.390625 L 149.648438 166.214844 C 149.648438 166.035156 149.621094 165.859375 149.621094 165.683594 C 149.621094 165.535156 149.597656 165.410156 149.597656 165.308594 C 149.597656 145.65625 166.585938 129.695312 187.496094 129.695312 C 208.382812 129.695312 225.394531 145.65625 225.394531 165.28125 C 225.394531 165.359375 225.394531 165.484375 225.371094 165.636719 C 225.34375 165.8125 225.34375 166.011719 225.34375 166.238281 Z M 225.34375 166.390625 " fill-opacity="1" fill-rule="nonzero"/></g></svg>