<svg xmlns="http://www.w3.org/2000/svg" xmlns:xlink="http://www.w3.org/1999/xlink" width="500" zoomAndPan="magnify" viewBox="0 0 375 374.999991" height="500" preserveAspectRatio="xMidYMid meet" version="1.0"><defs><clipPath id="92c9226ded"><path d="M 70.453125 16.179688 L 303.566406 16.179688 L 303.566406 359 L 70.453125 359 Z M 70.453125 16.179688 " clip-rule="nonzero"/></clipPath></defs><g clip-path="url(#92c9226ded)"><path fill="#238b50" d="M 304.390625 128.84375 C 304.457031 128.296875 304.457031 127.679688 304.457031 126.925781 C 304.527344 65.871094 251.96875 16.195312 187.488281 16.195312 C 122.941406 16.195312 70.453125 65.871094 70.453125 126.925781 C 70.453125 127.679688 70.523438 128.363281 70.523438 128.980469 C 70.523438 129.1875 70.523438 129.394531 70.589844 129.667969 C 69.21875 162.96875 80.527344 194.625 103.277344 221.214844 C 116.089844 236.21875 129.109375 245.605469 135.140625 249.582031 L 135.140625 268.082031 C 128.628906 271.441406 124.242188 278.15625 124.242188 285.964844 C 124.242188 296.246094 131.988281 304.671875 141.921875 305.90625 C 141.304688 307.824219 140.964844 309.882812 140.964844 312.074219 L 140.964844 312.828125 C 140.964844 323.449219 149.390625 332.082031 159.875 332.492188 C 159.191406 334.480469 158.847656 336.671875 158.847656 338.867188 C 158.847656 349.898438 167.824219 358.941406 178.925781 358.941406 L 200.097656 358.941406 C 211.128906 358.941406 220.175781 349.964844 220.175781 338.867188 C 220.175781 336.605469 219.832031 334.480469 219.148438 332.492188 C 229.632812 332.082031 238.058594 323.449219 238.058594 312.828125 L 238.058594 312.074219 C 238.058594 309.949219 237.714844 307.894531 237.101562 305.90625 C 247.035156 304.742188 254.777344 296.246094 254.777344 285.964844 C 254.777344 276.714844 248.476562 268.90625 239.976562 266.574219 L 239.976562 249.582031 C 246.007812 245.605469 259.027344 236.21875 271.839844 221.214844 C 294.589844 194.625 305.894531 162.96875 304.527344 129.667969 C 304.390625 129.324219 304.390625 129.117188 304.390625 128.84375 Z M 200.03125 345.101562 L 178.855469 345.101562 C 175.359375 345.101562 172.484375 342.222656 172.484375 338.730469 C 172.484375 335.234375 175.359375 332.355469 178.855469 332.355469 L 200.03125 332.355469 C 203.523438 332.355469 206.402344 335.234375 206.402344 338.730469 C 206.402344 342.222656 203.523438 345.101562 200.03125 345.101562 Z M 224.285156 312.691406 C 224.285156 315.980469 221.613281 318.652344 218.324219 318.652344 L 160.558594 318.652344 C 157.269531 318.652344 154.597656 315.980469 154.597656 312.691406 L 154.597656 311.9375 C 154.597656 308.648438 157.269531 305.976562 160.558594 305.976562 L 218.257812 305.976562 C 221.546875 305.976562 224.21875 308.648438 224.21875 311.9375 L 224.21875 312.691406 Z M 234.566406 292.269531 L 144.253906 292.269531 C 140.757812 292.269531 137.878906 289.394531 137.878906 285.898438 C 137.878906 282.402344 140.757812 279.527344 144.253906 279.527344 L 234.632812 279.527344 C 238.128906 279.527344 241.003906 282.402344 241.003906 285.898438 C 241.003906 289.394531 238.128906 292.269531 234.566406 292.269531 Z M 194.480469 190.171875 L 228.878906 155.773438 C 231.550781 153.101562 231.550781 148.785156 228.878906 146.113281 C 226.203125 143.441406 221.886719 143.441406 219.214844 146.113281 L 194.546875 170.78125 L 194.546875 147.003906 L 215.105469 126.445312 C 217.777344 123.773438 217.777344 119.457031 215.105469 116.785156 C 212.433594 114.113281 208.113281 114.113281 205.441406 116.785156 L 194.480469 127.679688 L 194.480469 108.425781 C 194.480469 104.65625 191.394531 101.574219 187.625 101.574219 C 183.859375 101.574219 180.773438 104.65625 180.773438 108.425781 L 180.773438 127.886719 L 169.675781 116.785156 C 167 114.113281 162.683594 114.113281 160.011719 116.785156 C 157.339844 119.457031 157.339844 123.773438 160.011719 126.445312 L 180.84375 147.277344 L 180.84375 170.78125 L 156.175781 146.113281 C 153.503906 143.441406 149.1875 143.441406 146.511719 146.113281 C 143.839844 148.785156 143.839844 153.101562 146.511719 155.773438 L 180.910156 190.171875 L 180.910156 211.414062 C 169.878906 210.179688 159.738281 206.070312 151.722656 199.355469 C 141.101562 190.445312 135.070312 177.632812 134.246094 162.214844 C 132.601562 131.722656 150.554688 101.230469 187.625 71.492188 C 207.703125 87.320312 222.300781 103.492188 230.933594 119.457031 C 238.46875 133.367188 241.757812 147.347656 240.9375 162.214844 C 240.113281 177.632812 234.085938 190.445312 223.464844 199.355469 C 215.582031 206 205.511719 210.113281 194.546875 211.347656 L 194.546875 190.171875 Z M 290.683594 129.941406 C 291.988281 160.089844 282.1875 187.636719 261.632812 211.894531 C 246.007812 230.257812 229.769531 239.714844 229.632812 239.78125 C 227.507812 241.015625 226.203125 243.277344 226.203125 245.742188 L 226.203125 265.820312 L 194.480469 265.820312 L 194.480469 225.1875 C 208.664062 223.886719 221.820312 218.539062 232.167969 209.90625 C 245.800781 198.53125 253.546875 182.292969 254.574219 162.96875 C 256.558594 126.035156 236.550781 91.980469 193.453125 58.746094 L 191.738281 57.375 C 189.269531 55.457031 185.84375 55.457031 183.378906 57.375 C 139.660156 91.089844 118.488281 126.582031 120.40625 163.039062 C 121.433594 182.359375 129.175781 198.601562 142.8125 209.976562 C 153.230469 218.675781 166.523438 224.023438 180.773438 225.253906 L 180.773438 265.820312 L 148.84375 265.820312 L 148.84375 245.742188 C 148.84375 243.277344 147.542969 241.015625 145.417969 239.78125 C 145.28125 239.714844 129.3125 230.464844 113.691406 212.238281 C 92.859375 187.910156 82.992188 160.226562 84.296875 129.941406 L 84.296875 129.460938 C 84.296875 128.980469 84.226562 128.503906 84.226562 128.023438 C 84.226562 127.613281 84.15625 127.269531 84.15625 126.996094 C 84.15625 73.410156 130.480469 29.898438 187.488281 29.898438 C 244.433594 29.898438 290.820312 73.410156 290.820312 126.925781 C 290.820312 127.132812 290.820312 127.472656 290.753906 127.886719 C 290.683594 128.363281 290.683594 128.914062 290.683594 129.53125 Z M 290.683594 129.941406 " fill-opacity="1" fill-rule="nonzero"/><path fill="#238b50" d="M 304.390625 128.84375 C 304.457031 128.296875 304.457031 127.679688 304.457031 126.925781 C 304.527344 65.871094 251.96875 16.195312 187.488281 16.195312 C 122.941406 16.195312 70.453125 65.871094 70.453125 126.925781 C 70.453125 127.679688 70.523438 128.363281 70.523438 128.980469 C 70.523438 129.1875 70.523438 129.394531 70.589844 129.667969 C 69.21875 162.96875 80.527344 194.625 103.277344 221.214844 C 116.089844 236.21875 129.109375 245.605469 135.140625 249.582031 L 135.140625 268.082031 C 128.628906 271.441406 124.242188 278.15625 124.242188 285.964844 C 124.242188 296.246094 131.988281 304.671875 141.921875 305.90625 C 141.304688 307.824219 140.964844 309.882812 140.964844 312.074219 L 140.964844 312.828125 C 140.964844 323.449219 149.390625 332.082031 159.875 332.492188 C 159.191406 334.480469 158.847656 336.671875 158.847656 338.867188 C 158.847656 349.898438 167.824219 358.941406 178.925781 358.941406 L 200.097656 358.941406 C 211.128906 358.941406 220.175781 349.964844 220.175781 338.867188 C 220.175781 336.605469 219.832031 334.480469 219.148438 332.492188 C 229.632812 332.082031 238.058594 323.449219 238.058594 312.828125 L 238.058594 312.074219 C 238.058594 309.949219 237.714844 307.894531 237.101562 305.90625 C 247.035156 304.742188 254.777344 296.246094 254.777344 285.964844 C 254.777344 276.714844 248.476562 268.90625 239.976562 266.574219 L 239.976562 249.582031 C 246.007812 245.605469 259.027344 236.21875 271.839844 221.214844 C 294.589844 194.625 305.894531 162.96875 304.527344 129.667969 C 304.390625 129.324219 304.390625 129.117188 304.390625 128.84375 Z M 200.03125 345.101562 L 178.855469 345.101562 C 175.359375 345.101562 172.484375 342.222656 172.484375 338.730469 C 172.484375 335.234375 175.359375 332.355469 178.855469 332.355469 L 200.03125 332.355469 C 203.523438 332.355469 206.402344 335.234375 206.402344 338.730469 C 206.402344 342.222656 203.523438 345.101562 200.03125 345.101562 Z M 224.285156 312.691406 C 224.285156 315.980469 221.613281 318.652344 218.324219 318.652344 L 160.558594 318.652344 C 157.269531 318.652344 154.597656 315.980469 154.597656 312.691406 L 154.597656 311.9375 C 154.597656 308.648438 157.269531 305.976562 160.558594 305.976562 L 218.257812 305.976562 C 221.546875 305.976562 224.21875 308.648438 224.21875 311.9375 L 224.21875 312.691406 Z M 234.566406 292.269531 L 144.253906 292.269531 C 140.757812 292.269531 137.878906 289.394531 137.878906 285.898438 C 137.878906 282.402344 140.757812 279.527344 144.253906 279.527344 L 234.632812 279.527344 C 238.128906 279.527344 241.003906 282.402344 241.003906 285.898438 C 241.003906 289.394531 238.128906 292.269531 234.566406 292.269531 Z M 194.480469 190.171875 L 228.878906 155.773438 C 231.550781 153.101562 231.550781 148.785156 228.878906 146.113281 C 226.203125 143.441406 221.886719 143.441406 219.214844 146.113281 L 194.546875 170.78125 L 194.546875 147.003906 L 215.105469 126.445312 C 217.777344 123.773438 217.777344 119.457031 215.105469 116.785156 C 212.433594 114.113281 208.113281 114.113281 205.441406 116.785156 L 194.480469 127.679688 L 194.480469 108.425781 C 194.480469 104.65625 191.394531 101.574219 187.625 101.574219 C 183.859375 101.574219 180.773438 104.65625 180.773438 108.425781 L 180.773438 127.886719 L 169.675781 116.785156 C 167 114.113281 162.683594 114.113281 160.011719 116.785156 C 157.339844 119.457031 157.339844 123.773438 160.011719 126.445312 L 180.84375 147.277344 L 180.84375 170.78125 L 156.175781 146.113281 C 153.503906 143.441406 149.1875 143.441406 146.511719 146.113281 C 143.839844 148.785156 143.839844 153.101562 146.511719 155.773438 L 180.910156 190.171875 L 180.910156 211.414062 C 169.878906 210.179688 159.738281 206.070312 151.722656 199.355469 C 141.101562 190.445312 135.070312 177.632812 134.246094 162.214844 C 132.601562 131.722656 150.554688 101.230469 187.625 71.492188 C 207.703125 87.320312 222.300781 103.492188 230.933594 119.457031 C 238.46875 133.367188 241.757812 147.347656 240.9375 162.214844 C 240.113281 177.632812 234.085938 190.445312 223.464844 199.355469 C 215.582031 206 205.511719 210.113281 194.546875 211.347656 L 194.546875 190.171875 Z M 290.683594 129.941406 C 291.988281 160.089844 282.1875 187.636719 261.632812 211.894531 C 246.007812 230.257812 229.769531 239.714844 229.632812 239.78125 C 227.507812 241.015625 226.203125 243.277344 226.203125 245.742188 L 226.203125 265.820312 L 194.480469 265.820312 L 194.480469 225.1875 C 208.664062 223.886719 221.820312 218.539062 232.167969 209.90625 C 245.800781 198.53125 253.546875 182.292969 254.574219 162.96875 C 256.558594 126.035156 236.550781 91.980469 193.453125 58.746094 L 191.738281 57.375 C 189.269531 55.457031 185.84375 55.457031 183.378906 57.375 C 139.660156 91.089844 118.488281 126.582031 120.40625 163.039062 C 121.433594 182.359375 129.175781 198.601562 142.8125 209.976562 C 153.230469 218.675781 166.523438 224.023438 180.773438 225.253906 L 180.773438 265.820312 L 148.84375 265.820312 L 148.84375 245.742188 C 148.84375 243.277344 147.542969 241.015625 145.417969 239.78125 C 145.28125 239.714844 129.3125 230.464844 113.691406 212.238281 C 92.859375 187.910156 82.992188 160.226562 84.296875 129.941406 L 84.296875 129.460938 C 84.296875 128.980469 84.226562 128.503906 84.226562 128.023438 C 84.226562 127.613281 84.15625 127.269531 84.15625 126.996094 C 84.15625 73.410156 130.480469 29.898438 187.488281 29.898438 C 244.433594 29.898438 290.820312 73.410156 290.820312 126.925781 C 290.820312 127.132812 290.820312 127.472656 290.753906 127.886719 C 290.683594 128.363281 290.683594 128.914062 290.683594 129.53125 Z M 290.683594 129.941406 " fill-opacity="1" fill-rule="nonzero"/></g></svg>