<svg xmlns="http://www.w3.org/2000/svg" xmlns:xlink="http://www.w3.org/1999/xlink" width="500" zoomAndPan="magnify" viewBox="0 0 375 374.999991" height="500" preserveAspectRatio="xMidYMid meet" version="1.0"><defs><clipPath id="0e62c79bb8"><path d="M 142 112.5 L 235 112.5 L 235 262.5 L 142 262.5 Z M 142 112.5 " clip-rule="nonzero"/></clipPath></defs><rect x="-37.5" width="450" fill="#ffffff" y="-37.499999" height="449.999989" fill-opacity="1"/><rect x="-37.5" width="450" fill="#ffffff" y="-37.499999" height="449.999989" fill-opacity="1"/><g clip-path="url(#0e62c79bb8)"><path fill="#219d80" d="M 195.855469 262.378906 C 210.449219 254.804688 211.101562 230.894531 204.203125 228.273438 C 205.441406 232.960938 199.972656 236.53125 195.855469 241.125 C 201.417969 225.507812 183.566406 209.894531 188.285156 199.066406 C 160.945312 214.886719 161.171875 252.042969 180.484375 262.234375 C 154.003906 257.175781 128.714844 227.984375 150.890625 190.019531 C 164.441406 166.820312 204.90625 140.566406 186.714844 112.425781 C 211.722656 127.09375 226.558594 161.554688 207.539062 207.332031 C 211.722656 205.96875 217.175781 197.421875 220.042969 185.347656 C 246.339844 209.421875 235.894531 256.421875 195.855469 262.378906 " fill-opacity="1" fill-rule="nonzero"/><path fill="#219d80" d="M 195.855469 262.378906 C 210.449219 254.804688 211.101562 230.894531 204.203125 228.273438 C 205.441406 232.960938 199.972656 236.53125 195.855469 241.125 C 201.417969 225.507812 183.566406 209.894531 188.285156 199.066406 C 160.945312 214.886719 161.171875 252.042969 180.484375 262.234375 C 154.003906 257.175781 128.714844 227.984375 150.890625 190.019531 C 164.441406 166.820312 204.90625 140.566406 186.714844 112.425781 C 211.722656 127.09375 226.558594 161.554688 207.539062 207.332031 C 211.722656 205.96875 217.175781 197.421875 220.042969 185.347656 C 246.339844 209.421875 235.894531 256.421875 195.855469 262.378906 " fill-opacity="1" fill-rule="nonzero"/></g></svg>